# xmcd CD database file
#
# Track frame offsets:
#	150
#	49252
#	87407
#	103085
#	162487
#	197030
#	228687
#
# Disc length: 3318 seconds
#
# Revision: 0
# Processed by: cddbd v1.5PL3 Copyright (c) Steve Scherf et al.
# Submitted via: CDex 1.50
#
DISCID=5f0cf407
DTITLE=Mal Waldron - Travellin' in Soul-Time
DYEAR=1995
DGENRE=Jazz
TTITLE0=The Sae-gulls of Kristiansund
TTITLE1=Circumambulation
TTITLE2=Komori Uta
TTITLE3=White road
TTITLE4=Black Rain
TTITLE5=Remember
TTITLE6=At Kamenoi Besso
EXTD=YEAR: 1995
EXTT0=
EXTT1=
EXTT2=
EXTT3=
EXTT4=
EXTT5=
EXTT6=
PLAYORDER=
